<mxfile host="app.diagrams.net" modified="2023-10-14T01:29:13.479Z" agent="Mozilla/5.0 (Windows NT 10.0; Win64; x64) AppleWebKit/537.36 (KHTML, like Gecko) Chrome/117.0.0.0 Safari/537.36" etag="LlDyagnikX4GU7SoFKcm" version="22.0.4" type="device">
  <diagram name="Page-1" id="7UhFhvndRasLLPEqPfGs">
    <mxGraphModel dx="1434" dy="-10" grid="0" gridSize="10" guides="1" tooltips="1" connect="1" arrows="1" fold="1" page="0" pageScale="1" pageWidth="850" pageHeight="1100" math="0" shadow="0">
      <root>
        <mxCell id="0" />
        <mxCell id="1" parent="0" />
        <mxCell id="KV1QCpQnclMQ9yNTW9YU-60" value="" style="shape=table;startSize=0;container=1;collapsible=0;childLayout=tableLayout;fontSize=16;" parent="1" vertex="1">
          <mxGeometry x="334" y="996" width="272" height="40" as="geometry" />
        </mxCell>
        <mxCell id="KV1QCpQnclMQ9yNTW9YU-61" value="" style="shape=tableRow;horizontal=0;startSize=0;swimlaneHead=0;swimlaneBody=0;strokeColor=inherit;top=0;left=0;bottom=0;right=0;collapsible=0;dropTarget=0;fillColor=none;points=[[0,0.5],[1,0.5]];portConstraint=eastwest;fontSize=16;" parent="KV1QCpQnclMQ9yNTW9YU-60" vertex="1">
          <mxGeometry width="272" height="40" as="geometry" />
        </mxCell>
        <mxCell id="KV1QCpQnclMQ9yNTW9YU-62" value="&lt;u&gt;username&lt;/u&gt;" style="shape=partialRectangle;html=1;whiteSpace=wrap;connectable=0;strokeColor=inherit;overflow=hidden;fillColor=none;top=0;left=0;bottom=0;right=0;pointerEvents=1;fontSize=16;" parent="KV1QCpQnclMQ9yNTW9YU-61" vertex="1">
          <mxGeometry width="132" height="40" as="geometry">
            <mxRectangle width="132" height="40" as="alternateBounds" />
          </mxGeometry>
        </mxCell>
        <mxCell id="KV1QCpQnclMQ9yNTW9YU-63" value="password" style="shape=partialRectangle;html=1;whiteSpace=wrap;connectable=0;strokeColor=inherit;overflow=hidden;fillColor=none;top=0;left=0;bottom=0;right=0;pointerEvents=1;fontSize=16;" parent="KV1QCpQnclMQ9yNTW9YU-61" vertex="1">
          <mxGeometry x="132" width="140" height="40" as="geometry">
            <mxRectangle width="140" height="40" as="alternateBounds" />
          </mxGeometry>
        </mxCell>
        <mxCell id="KV1QCpQnclMQ9yNTW9YU-65" value="User" style="text;strokeColor=none;fillColor=none;html=1;fontSize=24;fontStyle=1;verticalAlign=middle;align=center;" parent="1" vertex="1">
          <mxGeometry x="334" y="956" width="51" height="40" as="geometry" />
        </mxCell>
        <mxCell id="qcZGpW1APaJaNuRM6r2s-8" value="" style="shape=table;startSize=0;container=1;collapsible=0;childLayout=tableLayout;fontSize=16;" parent="1" vertex="1">
          <mxGeometry x="332" y="1146" width="272" height="40" as="geometry" />
        </mxCell>
        <mxCell id="qcZGpW1APaJaNuRM6r2s-9" value="" style="shape=tableRow;horizontal=0;startSize=0;swimlaneHead=0;swimlaneBody=0;strokeColor=inherit;top=0;left=0;bottom=0;right=0;collapsible=0;dropTarget=0;fillColor=none;points=[[0,0.5],[1,0.5]];portConstraint=eastwest;fontSize=16;" parent="qcZGpW1APaJaNuRM6r2s-8" vertex="1">
          <mxGeometry width="272" height="40" as="geometry" />
        </mxCell>
        <mxCell id="qcZGpW1APaJaNuRM6r2s-10" value="&lt;u&gt;r_username&lt;/u&gt;" style="shape=partialRectangle;html=1;whiteSpace=wrap;connectable=0;strokeColor=inherit;overflow=hidden;fillColor=none;top=0;left=0;bottom=0;right=0;pointerEvents=1;fontSize=16;" parent="qcZGpW1APaJaNuRM6r2s-9" vertex="1">
          <mxGeometry width="132" height="40" as="geometry">
            <mxRectangle width="132" height="40" as="alternateBounds" />
          </mxGeometry>
        </mxCell>
        <mxCell id="qcZGpW1APaJaNuRM6r2s-11" value="&lt;u&gt;role&lt;/u&gt;" style="shape=partialRectangle;html=1;whiteSpace=wrap;connectable=0;strokeColor=inherit;overflow=hidden;fillColor=none;top=0;left=0;bottom=0;right=0;pointerEvents=1;fontSize=16;" parent="qcZGpW1APaJaNuRM6r2s-9" vertex="1">
          <mxGeometry x="132" width="140" height="40" as="geometry">
            <mxRectangle width="140" height="40" as="alternateBounds" />
          </mxGeometry>
        </mxCell>
        <mxCell id="qcZGpW1APaJaNuRM6r2s-14" value="Roles" style="text;strokeColor=none;fillColor=none;html=1;fontSize=24;fontStyle=1;verticalAlign=middle;align=center;" parent="1" vertex="1">
          <mxGeometry x="332" y="1106" width="62" height="40" as="geometry" />
        </mxCell>
        <mxCell id="qcZGpW1APaJaNuRM6r2s-15" value="" style="edgeStyle=segmentEdgeStyle;endArrow=classic;html=1;curved=0;rounded=0;endSize=8;startSize=8;exitX=0.25;exitY=1;exitDx=0;exitDy=0;" parent="1" source="qcZGpW1APaJaNuRM6r2s-8" edge="1">
          <mxGeometry width="50" height="50" relative="1" as="geometry">
            <mxPoint x="240" y="1074" as="sourcePoint" />
            <mxPoint x="402" y="1036" as="targetPoint" />
            <Array as="points">
              <mxPoint x="400" y="1253" />
              <mxPoint x="288" y="1253" />
              <mxPoint x="288" y="1065" />
              <mxPoint x="402" y="1065" />
            </Array>
          </mxGeometry>
        </mxCell>
      </root>
    </mxGraphModel>
  </diagram>
</mxfile>
